<?xml version="1.0" encoding="UTF-8"?>
<!DOCTYPE svg PUBLIC "-//W3C//DTD SVG 1.1//EN" "http://www.w3.org/Graphics/SVG/1.1/DTD/svg11.dtd">
<!-- Creator: CorelDRAW 2021.5 -->
<svg xmlns="http://www.w3.org/2000/svg" xml:space="preserve" width="141.626mm" height="141.626mm" version="1.1" style="shape-rendering:geometricPrecision; text-rendering:geometricPrecision; image-rendering:optimizeQuality; fill-rule:evenodd; clip-rule:evenodd"
viewBox="0 0 539.53 539.52"
 xmlns:xlink="http://www.w3.org/1999/xlink"
 xmlns:xodm="http://www.corel.com/coreldraw/odm/2003">
 <defs>
  <style type="text/css">
   <![CDATA[
    .fil1 {fill:#BD8E55}
    .fil0 {fill:#EBECEC;fill-rule:nonzero}
   ]]>
  </style>
 </defs>
 <g id="Plan_x0020_1">
  <metadata id="CorelCorpID_0Corel-Layer"/>
  <path class="fil0" d="M539.53 269.76c0,148.99 -120.78,269.76 -269.76,269.76 -148.99,0 -269.76,-120.78 -269.76,-269.76 0,-148.99 120.78,-269.76 269.76,-269.76 148.99,0 269.76,120.78 269.76,269.76z"/>
  <path class="fil1" d="M292.54 468.26c3.95,-3.08 4.84,-28.06 4.1,-33.57 -0.98,-7.31 -4.16,-29.11 1.97,-34.67 5.7,9.95 -3.7,40.99 0.21,62.96 1.49,8.39 5.99,14.88 4.73,16.56 -5.41,3.63 -6.03,-5.29 -7.71,-8.15 -4.13,2.41 -1.99,6.9 -7.65,6.15 -1.26,-4.2 1.26,-4.39 2.04,-8.12 -4.32,-0.35 -2.64,2.56 -6.59,4.7 -3.99,-2.94 -2.98,-4.97 -2.57,-8.99 0.35,-3.4 -0.28,-7.91 1.13,-10.59 1.56,3.75 -0.89,7.83 2.46,10.97 4.41,-2.7 3.44,-12.99 5.68,-16.62 0.77,4.8 -1.74,16.26 2.18,19.35zm-71.63 -248.33c0.51,0.77 0.33,0.76 0.77,1.68 -2.05,3.72 -5.51,6.36 -7.09,10.23 -1.87,4.59 0.28,13.42 -6.05,29.09 -1.59,3.94 -3.59,8.97 -4.29,13.06 2.97,-1.27 13.09,-23.75 13.3,-25.01 1.29,-7.48 -1.65,-9.78 3.01,-16.59 7.85,-11.46 3.57,-6.36 6.5,-12.94 3.07,-0.7 7.06,-0.3 8.89,2.42 0.85,1.26 3.2,7.34 3.33,8.89 0.73,8.55 -7.21,8.49 0.37,18.47 6.07,7.99 10.17,25.01 21.87,26.89l-7.77 -8.57c-4.72,-6.1 -7.7,-15.9 -9.77,-23.31 -1.66,-5.95 -0.2,-10.37 -1.58,-15.28 -2.54,-9.02 -11.16,-11.98 -7.61,-24.92 1.89,-6.87 2.37,-24.26 0.86,-31.06 -9.89,4.14 0.4,16.19 -3.44,21.65 -4.58,-4 1.61,-14.86 -4.44,-17.17 -2.05,11.58 5.86,30.59 -0.68,33.64 -3.15,-6.57 3.96,-19.57 -2.89,-23.98 -2.37,3.46 -1.59,14.82 -2.82,19.77 -4.37,-6.52 4.35,-21.85 1.62,-25.33l-5.68 19.39c-0.45,-3.75 0.93,-4.19 0.15,-8.14 -1.52,1.47 -1.31,2.48 -2.14,4.67 -2.15,-4.32 -0.09,-9.9 -0.63,-14.62 -3.31,1.35 -5.9,10.5 -7.23,14.13 -3.41,9.34 -0.67,9.28 3.92,15.5 1.26,4.51 -13.93,31.01 -16.13,47.28 -0.67,4.97 -2.03,14.94 -2.11,19.59 4.34,-2 4.66,-10.55 6.22,-14.83 4.04,-11.11 6.88,-24.28 10.34,-31.5 2.51,-5.24 4.1,-10.39 5.44,-16.21 2.26,0.92 2.8,2.35 5.76,3.09zm180.26 -96.74l-0.26 -1.83 -1.07 1.63c0.62,5.11 0.8,34.84 -0.07,39.35l-4.88 0.71 -2.08 -0.18 0.27 -3.45c0.13,-11.31 6.05,-29.89 4.91,-40.16 -3.04,3.73 -8,41.41 -12.46,49.9 -1.93,3.68 0.11,6.67 2.92,8.93 10.03,8.1 36.43,7.79 35.12,-4.68 -0.4,-3.75 -3.21,-3.59 -4.53,-8.23 -0.9,-3.18 -2.3,-6.43 -3.35,-9.6l-12.99 -37.7c-1.92,4.15 11.34,37.99 11.21,46.5 -3.08,-0.45 -6.97,-1.03 -9.54,-2.46l-3.2 -38.73zm-139.15 -4.55c2.54,1.23 6.36,0.88 9.28,0.36 -1.12,-2.88 -7.46,-2.59 -9.28,-0.36zm-1.12 -1.52c1.58,-0.17 3.32,-0.68 4.82,-0.84 3.03,-0.32 3.09,0.57 5.79,0.54 -1.85,-3.4 -10.24,-4.25 -10.61,0.3zm1.88 -5.08c3.26,-0.27 5.07,-0.14 8.25,-0.22 -0.39,-4.94 -7.65,-6.11 -8.25,0.22zm34.45 43.86c1.09,2.09 6.9,6.37 9.36,7.25 -0.93,-3.59 -1.62,-4.55 -0.45,-8.1l-8.91 0.84zm-51.08 -2.86c3.53,-0.86 3.05,-3.25 8.3,-1.66 3.31,1 4.58,2.88 8.24,3.05 -0.03,-4.18 -6.84,-16.31 -9.89,-18.14 -1.46,3.18 -0.84,6.62 -2.08,9.49 -1.18,2.73 -3.9,3.32 -4.57,7.26zm-57.98 116.68c-12.09,-2.04 -5.49,16.76 -2.59,18.89 0.95,-0.94 5.4,-7.16 5.7,-8.6 0.6,-2.86 -0.99,-8.17 -3.11,-10.29zm106.26 -46.22c-2.74,-8.49 -23.13,-18.63 -30.72,-24.85 0.22,1.23 9.88,14 11.53,15.66 3.39,3.43 14.39,8.67 19.19,9.19zm-19.39 -40.66c6.54,2.36 9.68,-5.95 16.06,-6.81 -0.51,5.18 -5.24,6.5 -7.05,10.57 3.84,-0.51 5.73,-4.04 9.01,-5.07 -0.08,3.35 -1.38,3.08 -1.06,6.75 3.86,-1.76 11.99,-21.44 1.33,-19.51 -3.99,0.72 -17.7,10.24 -18.29,14.08zm-30.83 -35.97c2.58,-1.59 4.47,-18.51 5.89,-22.68l3.68 0.5c-0.2,-5.51 -4.88,-8.55 -0.17,-13.87 3.47,-3.92 11.4,-2.85 11.68,-7.34 -4.56,-0.55 -8.34,2.45 -11.84,5.15 -3.94,3.03 -4.95,6.91 -8.11,10.12 -5.07,5.16 -5.78,5.24 -4.81,13.47 0.4,3.36 0.18,3.86 2.06,6.71 2.54,3.85 0.8,3.92 1.63,7.94zm27.67 49.06c0.08,0.14 9.21,9.19 10.51,10.56 3.37,3.58 5.53,9.87 10.53,11.16 0.06,-4.44 -4.24,-6.76 -5.02,-11.88 5.24,2.41 5.68,14.1 11.8,14.68 -0.43,-4.97 -4.92,-9.42 -6.71,-14.05l2.15 -1.91c-0.89,-3.99 -5.55,-8.1 -9.24,-9.61 -3.17,-1.29 -3.91,1.01 -6.49,1.84 -3.25,1.05 -4.16,-0.82 -7.53,-0.79zm-71.37 115.74c2.72,-3.91 1.29,-11.17 0.68,-15.85 -1.19,-9.12 0.37,-9.02 0.78,-16.4 -5.7,2.6 -2.37,13.53 -5.62,17.94l-5.57 1.22 -0.88 4.47c-3.75,1.57 -4.74,-3.73 -7.93,-5.33 -0.54,5.23 1.75,5.78 4,9.92 1.72,3.16 3.04,6.28 6.58,6.76 2.17,-3.65 0.69,-7.77 2.85,-10.38l1.91 8.03 3.19 -0.39zm172.19 -225.59l-1.5 0.78c-0.92,-2.96 -0.53,-0.84 0.18,-2.54 1.04,-2.05 0.97,-1.18 0.22,-2.81 -1.9,2.53 -0.63,3.25 -3.4,4.1 -1.89,-3.07 0.74,-5.99 1.31,-9.54 -3.99,0.7 -2.95,2.31 -5.2,4.96 -2.07,-8.4 2.65,-9.42 7.48,-5.76 4.21,3.2 2.14,0.69 5.37,2.22l0.67 4.15c-1.45,1.61 -3.13,3.74 -5.13,4.44zm-7.48 9.36l-3.74 -3.68c-0.02,-2.91 1.67,-4.99 2.71,-7.5 2.95,3.71 0.96,5.44 0.22,8.47 4.4,-0.44 3.41,-3.59 8.26,-2.15 1.95,3.72 0,5.59 2.22,8.47 0.57,-3.29 -0.04,-5.09 0.28,-7.96 0.24,-2.12 1.58,-4.23 2.1,-6.69 1.23,2.85 -0.18,1.09 1.49,1.77 7.02,-15.99 -1.12,-10.53 -5.09,-12.83 -1.63,-0.95 -2.49,-2.53 -4.14,-3.88 -10.31,0.24 -16.29,25.73 -4.32,25.98zm-97.57 56.59c4.26,-3.56 1.28,-10.48 4.35,-14.72 2.79,-3.87 8.56,-5.44 6.01,-10.8 -3.67,-2.12 -6.4,-1.01 -10.45,-0.78 -4.66,0.26 -6.81,-1.03 -11.05,-1.05 -0.05,5.75 4.67,7.11 6.48,12.74 1.48,4.62 -0.56,12.43 4.67,14.62zm-52.57 26.66c4.19,-2.2 9.25,-12.73 15.9,-12.46 -0.83,2.52 -2.57,3.07 -0.92,5.39 2.78,-2.04 2.75,-4.98 5.63,-6.23 1.55,1.46 1.01,1.48 2.02,2.8 1.68,2.2 0.31,0.44 2.12,1.13 0.83,8.4 1.68,14.89 9.4,19.04 6.39,3.44 17.77,4.09 23.82,0.79 -16.98,-2.14 -24.23,-0.39 -31.31,-19.65 -2.24,-6.1 -1.75,-8.25 -2.84,-14.04 -1.44,0.56 -11.53,8.09 -13.45,9.6 -4.51,3.53 -9.15,7.22 -10.37,13.63zm158.78 -74.51l2.24 1.11c3.22,0.84 8.78,3.38 12.19,4.78 2.27,0.94 3.47,2.2 5.5,3.29 3.43,1.84 3.82,0.1 4.81,4.24l1.5 -2.08c6.15,3.41 14.58,-7.43 -8.98,-9.42 -27.11,-2.29 -38.45,-18.11 -48.23,-14.71l-1.28 3.67c2.98,4.35 10.38,4.67 15.15,5.38 4.66,0.69 13.85,3.64 17.1,3.74zm-139.23 149.18c-3.61,6.93 -6.74,17.5 -0.98,24.15 4.14,4.78 16.7,8.92 21.79,9.2 -0.49,-5.25 -6.78,-13.61 -10.51,-17.09 -2.99,-2.79 -4.63,-1.56 -6.85,-6.66 -1.25,-2.87 -1.65,-7.65 -3.44,-9.61zm33.13 0.13c1.68,-0.46 17.3,-12.1 17.75,-14.3 -8.3,-0.69 -8.79,0.62 -16.77,-3.49 -12.57,-6.47 -19.93,-12.41 -24.85,-25.79l-2.06 -6.06c-0.97,-1.68 -0.94,-1.13 -1.36,-1.48 -0.23,6.84 7.06,22.41 10.62,28.7 2.78,4.89 5.8,6.76 9.02,10.56 7.11,8.4 4.51,7.21 7.66,11.88zm-24.39 -95.5c0.49,2.44 1.73,5.09 2.37,8.12 0.85,4.01 0.31,5.3 3.29,8.27 4.47,4.45 7.61,8.63 14.71,7.41 4.21,-0.72 25.84,-14.59 27.4,-17.82 -5.24,1.15 -13.9,7.19 -19.12,9.82 -13.39,6.77 -8.44,5.55 -19.49,-0.87 1.16,-0.77 -1.72,-1.44 4.19,-0.18 3.89,0.83 12.42,1.54 14.04,-2.59 -4.86,-0.91 -15.37,-1.77 -18.82,-5.31 6.29,0.98 15.9,0.74 23.05,-0.12 10.45,-1.26 10.1,-6.02 22.29,-2.95 -0.78,-4.94 -7.2,-6.45 -11.71,-5.34 -4.4,1.09 -8.19,4.01 -12.47,5.63 -9.77,3.7 -20.3,-2.25 -29.73,-4.07zm-17.51 147.77c-0.16,9.18 -9.33,21.89 -2.71,29.53 3.98,-3.42 8.01,-15.74 20.15,-28.12 7.02,-7.15 4.75,-3.83 9.27,-6.82 -0.26,-3.02 -2.27,-8.14 -5.66,-9.04 -3.86,-1.02 -7.53,2.41 -12.3,1.51 -7.92,-1.5 -8.72,-13.13 -10.92,-18.16 -5.92,3.96 2.28,23.71 2.16,31.1zm11.4 -234.98c0.27,7.52 10.06,22.06 9.09,26.69 -4.07,0.08 -5.92,-5.11 -8.93,-7 0.05,2.85 5.09,10.96 7.18,13.1 5.05,-3.03 6.92,-13.76 17.54,-14.66 6.91,-0.59 19.28,4.17 20,12.03 -4.79,-3.36 -7.01,-4.81 -13.24,-5.07 -1,1.95 0.98,0.85 -1.32,1.59 -5.92,-0.02 -12.3,0.79 -15.97,5.57 4.52,0.38 11.26,-4.67 17.3,-4.45 3.75,0.14 12.02,5.15 13.94,8.03 -5.56,3.41 -7.91,-3.35 -15.22,-2.74l1.49 1.13c1.03,0.84 0.45,0.3 1.33,1.32 4.45,5.13 10.23,1.99 11.36,6.95 -0.47,7.46 -3.92,5.79 -1.22,16.66 1.67,6.7 -4.87,8.08 -4.4,15.15 2.65,2.9 8.14,5.84 12.32,6.17 6.51,-4.39 3.72,-8.11 -0.42,-12.59 -3.49,-3.79 -5.46,-10.54 -4.8,-15.81 3.31,1.36 2.27,5.15 5.84,6.67 0.23,-4.31 -2.15,-4.7 -2.59,-8.84 2.71,1.27 1.14,1.83 4.09,2.75 0.47,-6.14 -5.82,-9.39 -8.19,-13.4 3.69,0.28 2.65,1.37 5.09,2.32 -0.18,-5.19 -5.44,-7.93 -8.37,-11.15 3.74,0.24 2.38,1.78 5.75,2.4 0.52,-0.99 2.52,-9 2.84,-10.6 0.65,-3.28 3.49,-7.99 2.17,-10.7 -1.97,3.32 -4.51,7.94 -8.31,8.92 -0.44,-8.96 5.06,-20.2 4.95,-27.13 -4.15,3.86 -6.66,18.3 -15.03,23.38 -10.3,-11.12 -9.17,-30.03 -12.74,-34.86 -0.55,6.21 0.54,29.25 -2.69,33.02 -5.98,6.96 -15.72,-12.72 -18.85,-14.85zm-35.87 250.51c4.76,-2.84 13.51,-2.99 16.77,-6.75 0.24,-3.14 -0.03,-3.54 -2.61,-5.21 -4.77,0.47 -10.13,7.89 -16.71,7l-2.24 -3.66c-4.01,1.85 -2.19,2.94 -3.96,6.1 -5.06,0.83 -13.12,0.48 -17.41,2.81l-0.16 3.77c5.4,4.79 12.47,-2.25 20.11,-2.05 3.07,15.52 38.15,142.36 42.68,147 1.8,-4.24 -21.25,-97.14 -25.56,-113.3l-10.9 -35.72zm64.83 -43.9c9.7,-1.85 23.92,-29.49 28.44,-29.89 2.76,5.7 -5.15,13.15 -7.74,17.53l-44.81 58.5c-13.75,15.71 -18.96,15.2 -18.96,32.21 0,4.68 0.09,18.97 4.2,20.68 0.92,-12.39 8.99,-27.92 15.79,-38.35 6.99,-10.73 13.53,-22.2 20.86,-32.49 5.6,-7.87 8.19,-12.62 13.93,-19.85 0.83,-1.05 1.59,-2.95 2.46,-4.28 4.56,-6.89 13.02,-17.53 16.63,-23.89 2.92,-5.15 0.93,-16.24 -2,-21.09 -4.23,4.17 -26.86,35.85 -28.8,40.92zm110.13 -170.97l-1.17 -0.96 -1.51 1.03 -2.56 2.26c-4.95,-0.72 -3.73,-3.16 -7.61,-4.86 -0.05,8.45 13,13.88 11.15,25.42 -4.39,-0.78 -7.66,-8.91 -13.01,-10.4 1.97,8.18 10.26,20.39 11.29,28.71 -3.52,-3.05 -18.48,-39.63 -21.87,-43.43 -0.86,2.92 14.52,34.85 15.82,41.62l-6.16 -0.48c-2.46,-4.08 -7.45,-27.24 -9.75,-35.15l-1.56 -4.54c-0.04,-0.1 -0.14,-0.3 -0.22,-0.44 -1.3,2.4 2.48,15.31 3.04,19.34 0.93,6.69 4.09,13.78 3.65,20.4l-8.45 2.16c-0.69,-7.55 1.53,-43.31 0.51,-45.89 -1.11,1.37 -0.89,1.55 -1.2,4.74 -1.1,11.31 -2.67,32.81 -4.32,41.74 -7.53,0.12 -10.68,-1.43 -17.97,2.22 -4.49,2.25 -13.27,2.79 -16.19,4.73 1.02,2.42 1.17,0.72 2.82,2.94 0.99,1.33 0.99,2.18 2.38,3.75 1.46,-2.82 -0.07,-3.54 2.78,-4.84 2.89,3.01 -0.03,3.84 2.24,7.15 2.69,-2.8 -0.82,-9.11 5.74,-8.36l1.55 4.28c4.13,-1.82 2.31,-7.4 7.08,-7.74 0.46,3.94 -0.5,8.8 1.7,12.12 4.26,-3 1.69,-12.77 7.75,-13.36 -0.1,6.9 -0.87,8.02 5.8,11.88 8.96,5.19 25.95,5 31.14,-1 4.92,-5.69 -1.29,-9.82 -4.72,-12.58 1.49,-9.24 2.49,-1.97 3.55,-20.7 0.33,-5.89 3.05,-17.56 -1.68,-21.76zm-142.89 306.4c7.53,-3.08 45.27,-95.58 53.75,-113.75 1.44,-3.09 3.17,-6.61 4.38,-9.74 4.83,-12.4 13.06,-23.01 9.12,-31.04 -5.71,8.43 -3.23,16.8 -18.27,38.03 -11.88,16.79 -34.21,50.29 -42.43,68.31 -5.61,12.31 -8.16,34.61 -6.55,48.18zm94.74 -213.84c-5.11,-9.12 0.55,-28.03 -4.02,-35.5 -3.59,5.39 -0.22,17.39 -3.94,22.64 -3.99,-3.88 2.8,-15.63 -2.32,-17.78 -0.79,4.2 1.23,10.11 -1.69,13.43 -2.17,-1.47 -2.12,-1.77 -2.33,-7.04 -0.13,-3.18 0.33,-4.72 -1.92,-6.86 -0.79,1.38 -1.13,-0.45 0.31,4.73 0.64,2.29 0.8,2.74 0.04,5 -4.84,1.38 -5.36,-7.17 -7.69,-10.24 -0.91,1.89 0.95,6.15 1.17,8.83 1.11,13.55 -1.83,17.1 -9.84,24.28 3.92,2.05 2.55,0.22 3.31,5.32 0.44,2.93 1.81,4.13 2.86,6.65 1.88,4.52 1.19,10.98 -0.27,15.58 -7.75,-0.29 -26.63,-5.95 -32.9,-10.78 -3.8,-2.93 -10.66,-18.16 -21.86,-23.03 0.68,2.26 6.79,12.4 8.43,15.53 7.33,13.9 1.59,27.86 46.34,20.31 0.07,4.26 -2.79,11.89 0.8,14.9l7.94 -33.16c0.54,-4.48 -0.56,-7.89 3.65,-10.49 6.92,-0.79 6.69,2.01 10.74,5.16 10.76,8.35 18.39,-25.53 14.16,-29.65 -4.48,-2.11 -4.21,-1.08 -5.75,-7.12 -0.93,-3.66 -1.21,-6.01 -2.76,-9.48 -0.75,7.41 3.48,34.75 -2.48,38.78zm-25.33 140.36c-1.37,-10.77 -1.09,-37.91 4.55,-44.17 1.42,2.91 3.13,27.6 3.59,32.87 0.56,6.53 1.48,27.21 4.54,31.81l2.66 -0.18c2.68,-3.34 1.34,-8.43 0.35,-12.41 -2.36,-9.47 -4.56,-26.37 -6.26,-36.23l-8.34 -48.23c-2.15,2.13 -0.89,10.41 -0.69,13.23 0.92,13.14 -2.62,26.24 -8.51,37.98 -12.57,25.04 -30.27,54.85 -44.12,80.14 -8.23,15.03 -17.44,28.33 -12.16,46.63 6.54,-2.76 31.48,-71.82 40.35,-75.49 -0.11,4.96 -3.36,4.45 -3.56,9.12 4.1,-0.11 11.13,-8.14 13.9,-11.27 9.73,-11 13.97,-5.77 15.84,-9.81 0.66,-4.05 -1.54,-9.51 -2.11,-13.99zm3.51 47.21c-2.29,-1.59 -0.12,-1.16 -2.76,-0.88 -1.35,4.43 1.25,9.68 -2.95,11.2 -3.7,-4.33 -0.76,-8.71 -2.8,-13.36 -8.95,-1.48 -3.4,14.85 -3.43,22.88 -0.02,5.71 -1.5,20.4 -6.6,23.54 -5.64,-8.28 5.74,-38.59 -1.34,-43.78 -1.54,2.36 -6.17,37.21 -6.97,42.97 -1.03,7.37 -2.01,15.06 -2.47,22.48 -0.3,4.8 0.32,20.68 -0.71,23.62 -3.45,-0.77 -1.42,-2.33 -2.29,-5.85 -0.58,-2.37 -1.73,-3.03 -3.79,-2.19 -1.75,3.29 0.39,4.62 -2.66,6.96 -4.51,-0.75 -2,-2.59 -4.66,-5.93 -4.84,1.67 -4.51,7.03 -9.21,8.05 -3.01,0.65 -7.35,-4.37 -8.84,-6.48 1.1,-6.15 3.53,-1.96 5.67,-7.48 1.21,-3.11 1.11,-7.15 2.65,-9.8 1.39,2.16 0.73,2.3 2.91,3 3.94,-7.14 0.16,-28.03 5.35,-33.41 5.82,8.07 -0.7,40 6.81,43.24 2.63,-4.25 2.97,-24.79 3.84,-31.29 1.39,-10.35 2.86,-20.58 4.37,-30.89 2.02,-13.81 2.47,-14.37 12.39,-22.72 12.01,-10.11 12.75,-8.63 17.55,5.15 2.83,-1.17 2.8,-6.28 4.94,-9.67 1.93,-3.04 5.39,-4.86 6.25,-8.25 -6.73,-0.37 -10.45,3.12 -16.35,3.1 0.86,-4.62 2.8,-2.07 3.48,-6.2 -9.01,1.02 -25.86,13.2 -30.83,19.84 -8.4,11.24 -26.63,57.98 -30.18,71.08 -2.82,10.4 -2.18,12.07 3.43,19.93 5.84,8.19 9.59,5.4 15.95,0.19 4.2,4.96 8.37,7.67 14.53,3.65 9.45,8.03 9.66,1.5 19.53,3.57 6.13,1.28 11.38,6.75 19.02,2.64 -1.62,-6.88 -11.57,-9.63 -12,-16.94 -1.13,-19.18 2.3,-48.09 2.83,-68.2 0.12,-4.71 -0.8,-9.96 -0.67,-13.76z"/>
 </g>
</svg>
